<svg xmlns="http://www.w3.org/2000/svg" viewBox="0 0 500 500"><g id="freepik--Shadow--inject-2"><ellipse id="freepik--path--inject-2" cx="250" cy="416.24" rx="193.89" ry="11.32" style="fill:#f5f5f5"></ellipse></g><g id="freepik--character-1--inject-2"><polygon points="140.33 407.44 131.72 407.31 132.26 387.29 140.87 387.42 140.33 407.44" style="fill:#ffc3bd"></polygon><path d="M131.62,406.31l9.41.15a.66.66,0,0,1,.67.6l.82,7.7a1.41,1.41,0,0,1-1.42,1.51c-3.39-.11-8.27-.38-12.54-.45-5-.08-4.5.13-10.35,0-3.54-.05-4.11-3.65-2.59-4,6.91-1.37,7.61-1.44,13.85-4.95A4.3,4.3,0,0,1,131.62,406.31Z" style="fill:#263238"></path><path d="M129.63,149.6c-2,6.26-4.19,12.44-6.48,18.59-1.14,3.08-2.3,6.15-3.51,9.21s-2.42,6.12-3.7,9.18c-.29.73-.7,1.61-1.06,2.43s-.76,1.61-1.15,2.39-.8,1.55-1.22,2.3-.82,1.51-1.25,2.24c-1.66,3-3.49,5.76-5.3,8.56-3.68,5.57-7.58,10.88-11.78,16.06L88.74,217l8.63-17.44a146.18,146.18,0,0,0,7.46-17.17l6.08-18.51c2-6.18,4.15-12.37,6.32-18.49Z" style="fill:#ffc3bd"></path><path d="M135.42,145.59c-2.11,6.94-9.4,24.27-9.4,24.27L109.31,158.2s2.94-11.28,9.55-16.59C128.24,134.08,138.14,136.64,135.42,145.59Z" style="fill:#263238"></path><path d="M125.48,151.23c-6.15,1.49-10.81,7.69-10.06,11.24l10.6,7.39s2.27-8.71,6.28-14.51C130,153,127.26,150.8,125.48,151.23Z" style="opacity:0.2"></path><path d="M122.78,167a11.8,11.8,0,0,0,1.66-1.51s-12.41-8.65-15.54-8.74a4,4,0,0,0-.91,2.33S118.83,167.13,122.78,167Z" style="fill:#407BFF"></path><path d="M91.79,214.05l-8.31,5.36,6.65,7.23s7-3.27,5.75-9.56Z" style="fill:#ffc3bd"></path><path d="M80,227.8l4.1,2.08a2,2,0,0,0,2.12-.2l3.95-3-6.65-7.23-4.19,5.4A2,2,0,0,0,80,227.8Z" style="fill:#ffc3bd"></path><polygon points="132.26 387.29 131.98 397.61 140.6 397.75 140.88 387.43 132.26 387.29" style="opacity:0.2"></polygon><path d="M171.22,141.31c-8.05,32.79-4.86,67.59-5.43,74.63l-46.18-.75c-3-36.36,0-60.23,1.88-70.79a8.81,8.81,0,0,1,7.73-7.18l.57-.06c1.26-.13,2.62-.24,4-.32.78-.05,1.58-.07,2.38-.09a173,173,0,0,1,19.64,1.46c1.23.15,2.49.34,3.7.54s2.24.39,3.28.6C167.56,140.28,171.22,141.31,171.22,141.31Z" style="fill:#263238"></path><path d="M161.93,155.37c-.71,3.18.79,17.65,4.24,21.22.27-4.63.69-9.47,1.3-14.42Z" style="opacity:0.2"></path><path d="M154.69,116c-1.46,6.2-3.12,17.65,1.14,22.18-3.55,3.15-8.22,7.22-15.69,6.45-6.09-.62-6-5.34-3.93-7.91,7.1-1.15,7.11-6.38,6.06-11.36Z" style="fill:#ffc3bd"></path><path d="M153.46,123l-5.12-2.14-1.91,1.44c.2.7-.31,3.24,0,4,.88,2.12,4.41,3.23,6.69,2.87A42.41,42.41,0,0,1,153.46,123Z" style="opacity:0.2"></path><path d="M150,89.21c-3.59,2.66-3.6,3-7.36,2.27s-14.39-4.61-11.56,4.57c-8.94.52-7.68,9.93-3.68,15.23s8,5.81,8.46,10.16c.58,5.11,9.23,6.1,10.44,3.23l12.35-10.54c4.1.25.14-6.43,2.17-10.27a4.28,4.28,0,0,0,.06-3.88,7,7,0,0,0,2.83-2.48C167.84,91.43,155.83,84.93,150,89.21Z" style="fill:#263238"></path><path d="M136,107.82c1.08,8.49,1.28,13.51,5.88,17.57,6.91,6.1,17.19,1.41,18.67-7.25,1.33-7.8-.66-20.37-9.24-23.14A11.79,11.79,0,0,0,136,107.82Z" style="fill:#ffc3bd"></path><path d="M136.85,97.74c4.47-1,8.57,4.18,6.15,7.78s2.74,8.08-2.67,10.4c-3.78,1.62-5.61-2.31-7.44-5C130.08,106.81,132.09,98.79,136.85,97.74Z" style="fill:#263238"></path><path d="M132.48,96.65c5.46,2.94,6.79,5.8,14.9,3,4.79-1.64,6,2.13,12.16.8,1.19-7.27-7.29-8.88-11.57-8.08S132.48,96.65,132.48,96.65Z" style="fill:#263238"></path><path d="M132.48,98.11A1.48,1.48,0,0,1,132,98c-5.85-2-5.77-6.41-5.76-6.6a1.49,1.49,0,0,1,1.5-1.41,1.46,1.46,0,0,1,1.41,1.48c0,.15.09,2.52,3.78,3.77a1.46,1.46,0,0,1-.47,2.84Z" style="fill:#263238"></path><path d="M134.62,116.07a8.25,8.25,0,0,0,4.46,3.49c2.22.6,2.75-1.83,1.64-4.29-1-2.21-3.35-5.19-5.35-4.7S133.2,113.9,134.62,116.07Z" style="fill:#ffc3bd"></path><path d="M146.38,300.88c-.35-43.41,9.26-85.1,9.26-85.1l-36-.58s4.14,62.7,5.58,89c1.5,27.3,3.59,91.41,3.59,91.41l14.61.22S148.4,335.14,146.38,300.88Z" style="fill:#407BFF"></path><path d="M147.81,239.66c-10.26,14.05-5.65,40.47-1.44,59.14a400.45,400.45,0,0,1,5.24-61.46Z" style="opacity:0.2"></path><polygon points="127.9 395.88 145.28 396.15 146.26 390.52 126.89 389.92 127.9 395.88" style="fill:#263238"></polygon><path d="M150.06,109.89c0,.69.45,1.23.9,1.19s.79-.62.74-1.32-.45-1.23-.9-1.19S150,109.19,150.06,109.89Z" style="fill:#263238"></path><path d="M158.22,109.3c.05.7.45,1.23.91,1.2s.78-.63.74-1.32-.45-1.23-.91-1.2S158.18,108.61,158.22,109.3Z" style="fill:#263238"></path><path d="M155.83,109.41a24.63,24.63,0,0,0,3.71,5.7c-1.15,1.23-3.28.86-3.28.86Z" style="fill:#ed847e"></path><path d="M151.65,118a5.69,5.69,0,0,1-4.07-2,.21.21,0,0,1,.33-.25,5.46,5.46,0,0,0,4.62,1.82.2.2,0,0,1,.22.19.21.21,0,0,1-.19.22A6.9,6.9,0,0,1,151.65,118Z" style="fill:#263238"></path><path d="M148.08,107.21a.36.36,0,0,1-.2-.06.4.4,0,0,1-.11-.57,4.09,4.09,0,0,1,3.21-1.93.41.41,0,0,1,0,.82h0a3.26,3.26,0,0,0-2.53,1.56A.41.41,0,0,1,148.08,107.21Z" style="fill:#263238"></path><path d="M160.09,105.14a.43.43,0,0,1-.35-.17,3.15,3.15,0,0,0-2.59-1.38.41.41,0,0,1-.43-.39.41.41,0,0,1,.38-.43,4,4,0,0,1,3.3,1.71.41.41,0,0,1-.08.58A.49.49,0,0,1,160.09,105.14Z" style="fill:#263238"></path><path d="M130.06,407.08a.2.2,0,0,0,.13-.16.22.22,0,0,0-.1-.22c-.39-.2-3.83-2-4.89-1.45a.69.69,0,0,0-.35.54h0a1.17,1.17,0,0,0,.37,1c.93.85,3.41.55,4.81.3Zm-4.59-1.5c.65-.22,2.52.53,3.88,1.2-1.91.29-3.33.19-3.85-.29a.75.75,0,0,1-.24-.66.24.24,0,0,1,.13-.22Z" style="fill:#407BFF"></path><path d="M130.06,407.08l.05,0a.21.21,0,0,0,.09-.18c0-.1-.21-2.43-1.29-3.35a1.52,1.52,0,0,0-1.13-.37h0c-.56.05-.73.34-.77.56-.17,1,1.86,2.88,2.89,3.36A.29.29,0,0,0,130.06,407.08Zm-2.45-3.48a.87.87,0,0,1,.21,0h0a1.11,1.11,0,0,1,.83.27,4.82,4.82,0,0,1,1.09,2.68c-1.05-.65-2.43-2.14-2.33-2.72C127.42,403.75,127.44,403.66,127.61,403.6Zm.19-.24h0Z" style="fill:#407BFF"></path><polygon points="201.81 407.44 193.16 407.31 187.62 387.29 196.28 387.42 201.81 407.44" style="fill:#ffc3bd"></polygon><path d="M192.55,406.31l9.44.15a.82.82,0,0,1,.77.6l2.14,7.7a1.16,1.16,0,0,1-1.16,1.51c-3.41-.11-4.52-.38-8.8-.45-5-.08-2.66.13-8.53,0-3.55-.05-4.73-3.63-3.27-4,4.62-1,5.56-2.91,7.37-4.95A2.67,2.67,0,0,1,192.55,406.31Z" style="fill:#263238"></path><polygon points="187.62 387.29 190.48 397.61 199.14 397.75 196.28 387.43 187.62 387.29" style="opacity:0.2"></polygon><path d="M180.17,301.49c-4.9-38.8-8.56-76.88-14.38-85.55l-30.51-.49s17.65,63,23.61,88.88C165.07,331.2,186.54,393,186.54,393l13.92.2S189.31,331.5,180.17,301.49Z" style="fill:#407BFF"></path><polygon points="184.62 395.88 201.99 396.15 202.97 390.52 183.61 389.92 184.62 395.88" style="fill:#263238"></polygon><path d="M193.09,407a.19.19,0,0,0,.19-.1.21.21,0,0,0,0-.24c-.29-.33-2.9-3.21-4.09-3a.64.64,0,0,0-.51.39h0a1.11,1.11,0,0,0,0,1.06c.58,1.12,3,1.69,4.41,1.93Zm-3.79-3c.69,0,2.19,1.37,3.23,2.46-1.89-.38-3.19-1-3.52-1.6a.75.75,0,0,1,0-.7.24.24,0,0,1,.2-.16Z" style="fill:#407BFF"></path><path d="M193.09,407h.06a.21.21,0,0,0,.14-.15c0-.09.65-2.34,0-3.58a1.49,1.49,0,0,0-.94-.73h0c-.54-.15-.8.06-.91.26-.5.85.76,3.33,1.56,4.14A.2.2,0,0,0,193.09,407Zm-1.11-4.1.22,0h0a1.08,1.08,0,0,1,.68.54,4.8,4.8,0,0,1,.11,2.89c-.77-1-1.55-2.84-1.25-3.36A.23.23,0,0,1,192,402.86Zm.27-.17h0Z" style="fill:#407BFF"></path><path d="M174.88,150.66l.35.79.42.9.86,1.84c.61,1.23,1.25,2.45,1.92,3.65,1.33,2.43,2.76,4.8,4.29,7.08a78.2,78.2,0,0,0,4.89,6.6c.85,1.07,1.8,2,2.68,3.07l1.42,1.44.71.73.09.09h0s0,0-.07,0-.25,0-.22,0a.89.89,0,0,0,.53.06,8.77,8.77,0,0,0,2.67-.8A37.92,37.92,0,0,0,202,172a146.69,146.69,0,0,0,13-11.25l5.08,4a85.28,85.28,0,0,1-5.43,7.59,78.07,78.07,0,0,1-6.3,7,43.2,43.2,0,0,1-7.91,6.3A20,20,0,0,1,194.8,188a12.63,12.63,0,0,1-3.93.28,11.17,11.17,0,0,1-4.45-1.38c-.33-.21-.68-.42-1-.65l-.47-.35-.23-.18-.11-.1-.94-.8-1.86-1.6c-1.18-1.13-2.4-2.23-3.48-3.44a71,71,0,0,1-6.22-7.45,77.54,77.54,0,0,1-5.22-8.1c-.78-1.41-1.52-2.83-2.23-4.29-.35-.73-.71-1.46-1-2.21l-.49-1.15-.5-1.28Z" style="fill:#ffc3bd"></path><path d="M171.22,141.31c8,2.46,11.67,20.3,11.67,20.3l-12.18,10.7a49.94,49.94,0,0,1-10.84-16.87C155.76,144.42,161.57,138.32,171.22,141.31Z" style="fill:#263238"></path><path d="M183.48,161.94a12.36,12.36,0,0,0-.86-2.08s-12.32,8.79-13.45,11.7a4,4,0,0,0,1.89,1.64S182.24,165.68,183.48,161.94Z" style="fill:#407BFF"></path><path d="M213.57,162.65l4.67-7.38,6.93,7.85s-5,6.17-8.74,4Z" style="fill:#ffc3bd"></path><path d="M227.07,153.2l2,3.16a3,3,0,0,1-.58,3.87l-3.29,2.89-6.93-7.85,4.61-3A3,3,0,0,1,227.07,153.2Z" style="fill:#ffc3bd"></path></g><g id="freepik--Heart--inject-2"><path d="M328.47,174.44A49.23,49.23,0,0,0,293.55,160H272.43v4.74a49.46,49.46,0,0,0-13.8,9.72A49.24,49.24,0,0,0,223.33,160H202.22v4.92a49.38,49.38,0,0,0-13.43,79.39l48.5,48.5h-.23v21.34h15.32a15.09,15.09,0,0,0,10.67-4.42l65.42-65.42A49.39,49.39,0,0,0,328.47,174.44Z" style="fill:#407BFF"></path><path d="M328.47,174.44A49.23,49.23,0,0,0,293.55,160H272.43v4.74a49.46,49.46,0,0,0-13.8,9.72A49.24,49.24,0,0,0,223.33,160H202.22v4.92a49.38,49.38,0,0,0-13.43,79.39l48.5,48.5h-.23v21.34h15.32a15.09,15.09,0,0,0,10.67-4.42l65.42-65.42A49.39,49.39,0,0,0,328.47,174.44Z" style="opacity:0.2"></path><path d="M306.9,174.44a49.39,49.39,0,0,0-69.84,0,49.39,49.39,0,0,0-69.84,69.85l69.84,69.84,69.84-69.84A49.39,49.39,0,0,0,306.9,174.44Z" style="fill:#407BFF"></path><rect x="210.35" y="284.53" width="1" height="15.27" transform="translate(-144.83 234.67) rotate(-45)" style="fill:#407BFF"></rect><rect x="222.47" y="300.8" width="1" height="6.96" transform="translate(-149.86 246.8) rotate(-45)" style="fill:#407BFF"></rect><path d="M306.9,174.44a49.39,49.39,0,0,0-69.84,0,49.39,49.39,0,0,0-69.84,69.85l69.84,69.84,69.84-69.84A49.39,49.39,0,0,0,306.9,174.44Z" style="opacity:0.2"></path><path d="M174.42,237.08a39.19,39.19,0,1,1,55.43-55.43l7.21,7.21,7.21-7.21a39.19,39.19,0,1,1,55.43,55.43l-62.64,62.64Z" style="fill:#407BFF"></path><path d="M186.16,202.62h17.22v4.53H197.6V221h-5.67v-13.8h-5.77Z" style="fill:#fff"></path><path d="M206,202.62h5.67V209h6.19v-6.41h5.69V221h-5.69v-7.41h-6.19V221H206Z" style="fill:#fff"></path><path d="M238.54,217.92h-6.43l-.89,3h-5.79l6.89-18.33h6.18L245.39,221h-5.93Zm-1.17-4-2-6.59-2,6.59Z" style="fill:#fff"></path><path d="M247.23,202.62h5.29l6.9,10.14V202.62h5.34V221h-5.34l-6.86-10.07V221h-5.33Z" style="fill:#fff"></path><path d="M268.55,202.62h5.67v6.93l5.93-6.93h7.53L281,209.54,288,221h-7l-3.87-7.54-2.92,3.07V221h-5.67Z" style="fill:#fff"></path><path d="M206.28,233.35h6.29l3.69,6.19,3.7-6.19h6.26L219.09,244v7.68h-5.67V244Z" style="fill:#fff"></path><path d="M225.8,242.53a8.68,8.68,0,0,1,9.46-9.49c3.05,0,5.41.82,7.06,2.46a9.24,9.24,0,0,1,2.47,6.88,11.3,11.3,0,0,1-1.08,5.27,7.66,7.66,0,0,1-3.13,3.2,10.33,10.33,0,0,1-5.09,1.15,11.74,11.74,0,0,1-5.14-1,7.72,7.72,0,0,1-3.29-3.13A10.38,10.38,0,0,1,225.8,242.53Zm5.66,0a6.18,6.18,0,0,0,1,4,3.9,3.9,0,0,0,5.64,0c.66-.79,1-2.21,1-4.27a5.65,5.65,0,0,0-1-3.78,3.58,3.58,0,0,0-2.83-1.19,3.43,3.43,0,0,0-2.75,1.21A6.18,6.18,0,0,0,231.46,242.55Z" style="fill:#fff"></path><path d="M259.77,233.35h5.66v10.92a9.11,9.11,0,0,1-.51,3.07,6.67,6.67,0,0,1-1.59,2.52,6.34,6.34,0,0,1-2.27,1.52,11.35,11.35,0,0,1-4,.62,25.92,25.92,0,0,1-2.92-.19,7.55,7.55,0,0,1-2.65-.75,6.5,6.5,0,0,1-1.94-1.58,5.76,5.76,0,0,1-1.21-2.11,10.9,10.9,0,0,1-.52-3.1V233.35h5.65v11.18a3.24,3.24,0,0,0,.83,2.35,3.59,3.59,0,0,0,4.6,0,3.18,3.18,0,0,0,.83-2.36Z" style="fill:#fff"></path></g></svg>