<?xml version="1.0" encoding="UTF-8"?>
<svg id="Layer_1" data-name="Layer 1" xmlns="http://www.w3.org/2000/svg" viewBox="0 0 250 250">
  <defs>
    <style>
      .cls-1 {
        opacity: .4;
      }

      .cls-1, .cls-2, .cls-3, .cls-4, .cls-5, .cls-6, .cls-7, .cls-8, .cls-9, .cls-10, .cls-11, .cls-12, .cls-13, .cls-14 {
        stroke-width: 0px;
      }

      .cls-1, .cls-3, .cls-5, .cls-9, .cls-12, .cls-14 {
        isolation: isolate;
      }

      .cls-1, .cls-8, .cls-12 {
        fill: #fff;
      }

      .cls-2 {
        fill: #407bff;
      }

      .cls-3 {
        opacity: .05;
      }

      .cls-4 {
        fill: #e0e0e0;
      }

      .cls-5 {
        opacity: .2;
      }

      .cls-6 {
        fill: #f0f0f0;
      }

      .cls-7 {
        fill: #ffa8a7;
      }

      .cls-9 {
        opacity: .15;
      }

      .cls-10 {
        fill: #fafafa;
      }

      .cls-11 {
        fill: #f28f8f;
      }

      .cls-12 {
        opacity: .35;
      }

      .cls-13 {
        fill: #455a64;
      }

      .cls-14 {
        opacity: .1;
      }
    </style>
  </defs>
  <g id="freepik--Message--inject-26">
    <g id="freepik--Envelope--inject-26">
      <path class="cls-2" d="m48.55,121.54L181.93,44.54l5.34,3.08c1.48.97,2.4,2.59,2.5,4.35v98.39c-.09,1.76-1.02,3.38-2.5,4.35L58.9,228.81c-1.57.78-3.43.78-5,0l-2.82-1.63c-1.48-.97-2.41-2.58-2.51-4.35l-.02-101.29Z"/>
      <path class="cls-3" d="m48.55,121.54L181.93,44.54l5.34,3.08c1.48.97,2.4,2.59,2.5,4.35v98.39c-.09,1.76-1.02,3.38-2.5,4.35L58.9,228.81c-1.57.78-3.43.78-5,0l-2.82-1.63c-1.48-.97-2.41-2.58-2.51-4.35l-.02-101.29Z"/>
      <path class="cls-2" d="m181.19,35.88l.55-.3-2.07-1.2h0c-.18-.1-.37-.19-.56-.26l-58.7-21.75c-1.65-.55-3.47.02-4.5,1.43L50.24,109.69c-1.02,1.65-1.6,3.54-1.69,5.48v6.37l2,1.18L181.9,44.53v-6.37c-.02-.81-.26-1.6-.71-2.28Z"/>
      <path class="cls-14" d="m118.62,14.27c-.26.2-.49.45-.68.72L52.27,110.88c-.54.85-.95,1.77-1.22,2.74l-2-1.18c.15-.49.32-.98.53-1.45h0c.09-.2.18-.39.28-.58v-.09c.1-.2.22-.39.35-.58L115.9,13.81c.1-.14.21-.28.33-.4l.35-.32,2.04,1.18Z"/>
      <path class="cls-12" d="m181.71,35.58c-.18-.11-.37-.2-.56-.27l-58.71-21.76c-1.31-.44-2.76-.16-3.82.72l-2-1.18c1.07-.88,2.51-1.15,3.83-.72l58.7,21.75c.19.07.38.16.55.27l2.01,1.19Z"/>
      <path class="cls-2" d="m49.89,110.27c.11-.2.22-.39.35-.58-.13.19-.24.38-.35.58Z"/>
      <path class="cls-2" d="m116.24,13.41c.11-.12.22-.22.35-.32-.13.09-.25.2-.35.32Z"/>
      <path class="cls-2" d="m49,112.44c.15-.5.32-.98.53-1.46-.21.48-.38.96-.53,1.46Z"/>
      <path class="cls-2" d="m49.56,110.94c.09-.2.19-.39.28-.57-.09.18-.19.37-.28.57Z"/>
      <path class="cls-5" d="m49.84,110.37v-.1s.02.07,0,.1Z"/>
      <path class="cls-5" d="m115.91,13.8c.1-.14.21-.27.33-.39-.13.12-.24.25-.33.39Z"/>
      <path class="cls-2" d="m117.94,15L52.28,110.9c-1.03,1.65-1.61,3.53-1.7,5.47v6.37L183.96,45.74v-6.4c-.1-1.76-1.19-3.31-2.81-4l-58.7-21.75c-1.65-.55-3.47.02-4.51,1.41Z"/>
      <path class="cls-4" d="m65.1,215.41l-4.28-2.47h0c-.72-.55-1.1-1.43-1-2.33V77.25c.06-1.35.47-2.67,1.2-3.81l4.35,2.5c-.74,1.15-1.15,2.47-1.2,3.83v133.31c-.11.88.24,1.76.93,2.33Z"/>
      <path class="cls-6" d="m67.77,73.4L174.91,11.56c2-1.18,3.67-.23,3.67,2.12v133.32c-.14,2.59-1.5,4.95-3.67,6.37l-107.14,61.83c-2,1.17-3.67.22-3.67-2.13V79.77c.14-2.59,1.5-4.95,3.67-6.37Z"/>
      <path class="cls-10" d="m173.16,8.79l4.2,2.44c-.83-.31-1.75-.18-2.46.35l-107.13,61.83c-1.03.62-1.88,1.49-2.48,2.53l-4.35-2.5c.6-1.04,1.45-1.91,2.47-2.55L170.55,9c.76-.56,1.77-.65,2.61-.23v.02Z"/>
      <path class="cls-4" d="m76.13,80.38l89.09-51.44c1.2-.69,2.17-.2,2.17,1.1-.11,1.47-.92,2.81-2.17,3.59l-89.09,51.44c-1.2.69-2.17.2-2.17-1.09.11-1.48.91-2.82,2.17-3.6Z"/>
      <path class="cls-4" d="m76.13,89.73l89.09-51.44c1.2-.69,2.17-.2,2.17,1.1-.11,1.47-.92,2.81-2.17,3.59l-89.09,51.44c-1.2.69-2.17.2-2.17-1.09.11-1.48.91-2.82,2.17-3.6Z"/>
      <path class="cls-4" d="m76.13,99.08l89.09-51.44c1.2-.69,2.17-.2,2.17,1.09-.11,1.48-.91,2.82-2.17,3.6l-89.09,51.44c-1.2.69-2.17.2-2.17-1.09.11-1.48.91-2.82,2.17-3.6Z"/>
      <path class="cls-4" d="m76.13,108.43l89.09-51.43c1.2-.69,2.17-.2,2.17,1.09-.11,1.48-.91,2.82-2.17,3.6l-89.09,51.44c-1.2.69-2.17.2-2.17-1.1.11-1.48.91-2.82,2.17-3.6Z"/>
      <path class="cls-4" d="m76.13,117.78l89.09-51.44c1.2-.69,2.17-.2,2.17,1.09-.11,1.48-.91,2.82-2.17,3.6l-89.09,51.44c-1.2.69-2.17.2-2.17-1.1.11-1.47.92-2.81,2.17-3.59Z"/>
      <path class="cls-4" d="m76.13,127.13l89.09-51.44c1.2-.69,2.17-.2,2.17,1.09-.11,1.48-.91,2.82-2.17,3.6l-89.09,51.44c-1.2.69-2.17.2-2.17-1.1.11-1.47.92-2.81,2.17-3.59Z"/>
      <path class="cls-4" d="m76.13,136.48l89.09-51.48c1.2-.69,2.17-.2,2.17,1.09-.11,1.48-.91,2.82-2.17,3.6l-89.09,51.44c-1.2.69-2.17.2-2.17-1.1.12-1.46.93-2.78,2.17-3.55Z"/>
      <path class="cls-4" d="m76.13,145.83l89.09-51.44c1.2-.7,2.17-.2,2.17,1.09-.11,1.48-.91,2.82-2.17,3.6l-89.09,51.44c-1.2.69-2.17.2-2.17-1.1.11-1.47.92-2.81,2.17-3.59Z"/>
      <path class="cls-2" d="m186.39,151.66c-.04.07-.09.14-.14.2l-55.58-24.65c-4.36-1.93-9.48-.35-12,3.7l-59.42,95.34-2.2,1.27h0c-.5.35-1.14.42-1.7.19l61.11-98.06c2.52-4.04,7.63-5.62,12-3.71l57.93,25.72Z"/>
      <path class="cls-1" d="m113.18,139.58l.14-.12-54.09,86.8-2.2,1.27h0c-.5.34-1.14.41-1.7.19l55.67-89.42,2.18,1.28Z"/>
      <path class="cls-1" d="m186.39,151.67c-.04.07-.09.14-.14.2l-55.59-24.66c-4.36-1.93-9.48-.35-12,3.7l-2.2-1.28c2.53-4.03,7.64-5.6,12-3.68l57.93,25.72Z"/>
      <path class="cls-2" d="m189.73,51.33h0c-.12-.72-.5-.92-1-.58-.25.18-.46.41-.64.66l-.28.39-54.81,76.36-8.19,11.41c-1.07,1.35-2.81,2.01-4.51,1.69l-7.07-1.68-54-12.84c-.36-.07-.74-.07-1.1,0-.14.03-.28.07-.41.13l1.49-.86,52,12.37,7.09,1.62c1.7.32,3.44-.33,4.51-1.69l8.19-11.4,55.12-76.75c.17-.23.38-.42.62-.57l-4.74-2.73,2-1.15,3.3,1.9c1.28.86,2.15,2.2,2.43,3.72Z"/>
      <path class="cls-1" d="m133,128.16l-8.19,11.41c-1.07,1.35-2.81,2.01-4.51,1.69l-7.07-1.68.14-.12.34-.54,4.63,1.1c1.7.32,3.44-.33,4.51-1.69l8.11-11.28,2.04,1.11Z"/>
      <path class="cls-14" d="m187.26,47.61l-3.3-1.9-2,1.15,4.77,2.75h0c-.24.15-.45.34-.62.57l-55.11,76.75-.08.11h0l2,1.11,54.88-76.35.28-.39c.18-.25.39-.48.64-.66.49-.34.87-.14,1,.58h0c-.28-1.52-1.17-2.86-2.46-3.72Z"/>
      <path class="cls-2" d="m60.31,128.34l-11.76-6.8v101.29c.1,1.77,1.03,3.38,2.51,4.35l2.82,1.63c1.57.78,3.43.78,5,0l1.41-.82.02-99.65Z"/>
      <path class="cls-9" d="m60.31,128.34l-11.76-6.8v101.29c.1,1.77,1.03,3.38,2.51,4.35l2.82,1.63c1.57.78,3.43.78,5,0l1.41-.82.02-99.65Z"/>
      <path class="cls-13" d="m187.81,51.8v97.32c-.03.9-.3,1.78-.78,2.54-.37.65-.87,1.2-1.47,1.64l-.09.06-.17.11L56.94,227.57h0c-.15.1-.32.17-.49.23-.01-.15-.01-.3,0-.45v-98.35c-.08-1.2.84-2.24,2.04-2.31.26-.02.53.01.78.09l54,12.84,7.07,1.68c1.7.32,3.44-.34,4.51-1.69l8.15-11.45,54.81-76.36Z"/>
      <path class="cls-2" d="m189.78,52v98.39c-.03.9-.3,1.78-.78,2.54-.37.64-.87,1.21-1.47,1.65l-.1.05c-.05.04-.1.08-.16.11L58.91,228.8h0c-.5.35-1.14.43-1.71.2-.43-.25-.71-.7-.75-1.2-.01-.15-.01-.3,0-.45v-98.35c-.08-1.2.84-2.24,2.04-2.31.26-.02.53.01.78.09l54,12.84,7.07,1.68c1.7.32,3.44-.34,4.51-1.69l8.15-11.45,54.85-76.36.28-.39c.87-1.29,1.65-1.05,1.65.59Z"/>
      <path class="cls-2" d="m187.27,154.7l.16-.11.1-.05c.6-.44,1.1-1.01,1.47-1.65.47-.75.73-1.61.77-2.49l-56.77-22.24,38,35.93,16.27-9.39Z"/>
      <path class="cls-5" d="m187.27,154.7l.16-.11.1-.05c.6-.44,1.1-1.01,1.47-1.65.47-.75.73-1.61.77-2.49l-56.77-22.24,38,35.93,16.27-9.39Z"/>
      <path class="cls-2" d="m56.4,227.36c-.07.65.23,1.29.78,1.65.57.23,1.21.15,1.71-.2h0l44.19-25.51,10.09-63.71-56.77,86.13v1.64Z"/>
      <path class="cls-9" d="m118.63,130.9l-61.46,98.1c-.55-.36-.85-1-.78-1.65v-1.63l54.23-86.72.42-.67,5.39-8.64h0l2.2,1.21Z"/>
      <path class="cls-2" d="m189,152.89c-.37.64-.87,1.21-1.47,1.65l-.1.05L58.91,228.8h0c-.5.35-1.14.43-1.71.2l61.46-98.13c2.55-4.07,7.7-5.65,12.09-3.71l58.25,25.73Z"/>
      <path class="cls-2" d="m189,152.9c-.37.65-.87,1.2-1.47,1.64l-.09.06L58.9,228.81h0c-.5.35-1.14.42-1.71.19l1.71-2.72,126.31-72.94.1-.06c.53-.39.98-.88,1.33-1.44l2.36,1.06Z"/>
      <path class="cls-9" d="m49,112.44l2,1.18c-.28.89-.44,1.81-.47,2.74v6.36l-2-1.18v-6.37c.03-.93.19-1.85.47-2.73Z"/>
      <polygon class="cls-2" points="61.08 126.42 59.2 125.97 57.71 126.83 55.65 125.64 50.58 122.72 52.55 121.55 61.08 126.42"/>
      <path class="cls-14" d="m61.08,126.42h0l-8.52-4.86-2,1.17,5.07,2.92,2.06,1.19h0c.12-.06.25-.1.38-.12.36-.07.74-.07,1.1,0l4.15,1,47.3,11.28.42-.67-49.96-11.91Z"/>
    </g>
    <g id="freepik--Notification--inject-26">
      <path class="cls-11" d="m213.5,130.34l-9.49-5.5h0l-.08-.05h0c-4.14-2.34-9.83-2-16.12,1.65-12.66,7.31-22.93,25.09-22.93,39.71,0,7.3,2.57,12.43,6.7,14.83h0l8.65,5,2-3.39c2.31-.51,4.53-1.38,6.58-2.56,12.66-7.31,22.93-25.09,22.93-39.71,0-1.98-.24-3.94-.72-5.86l2.48-4.12Z"/>
      <path class="cls-9" d="m165.72,158.46c-.56,2.53-.85,5.11-.87,7.7,0,7.3,2.57,12.43,6.7,14.83h0l8.65,5,2-3.39c2.31-.51,4.53-1.38,6.58-2.56,2.24-1.31,4.34-2.86,6.25-4.61l-29.31-16.97Z"/>
      <path class="cls-7" d="m196.81,131.65c-12.66,7.31-22.93,25.09-22.93,39.71s10.27,20.55,22.93,13.24,22.93-25.09,22.93-39.71-10.26-20.55-22.93-13.24Z"/>
      <path class="cls-8" d="m205.87,152v-5.62c0-6.41-3.9-9.36-8.7-6.58h0c-4.81,2.78-8.71,10.22-8.71,16.63v5c-.11,3.47-1.12,6.85-2.93,9.81h0c-.45.78-.69,1.67-.71,2.57h0c0,1.61,1,2.36,2.19,1.66l20.33-11.74c1.35-.97,2.16-2.53,2.19-4.19h0c.06-.64-.17-1.26-.64-1.7h0c-1.84-.78-3.02-2.84-3.02-5.84Z"/>
      <path class="cls-8" d="m201.34,169c0,3.08-1.87,6.65-4.17,8s-4.18-.08-4.18-3.15l8.35-4.85Z"/>
    </g>
  </g>
</svg>