<?xml version="1.0" encoding="UTF-8"?>
<svg id="Layer_1" data-name="Layer 1" xmlns="http://www.w3.org/2000/svg" viewBox="0 0 250 250">
  <defs>
    <style>
      .cls-1 {
        opacity: .45;
      }

      .cls-1, .cls-2, .cls-3, .cls-4, .cls-5, .cls-6, .cls-7, .cls-8, .cls-9, .cls-10, .cls-11, .cls-12, .cls-13, .cls-14 {
        stroke-width: 0px;
      }

      .cls-1, .cls-2, .cls-4, .cls-6, .cls-7, .cls-8, .cls-9, .cls-11, .cls-12, .cls-14 {
        isolation: isolate;
      }

      .cls-2 {
        opacity: .3;
      }

      .cls-3 {
        fill: #407bff;
      }

      .cls-4, .cls-15 {
        opacity: .7;
      }

      .cls-4, .cls-10, .cls-11 {
        fill: #fff;
      }

      .cls-5 {
        fill: #e0e0e0;
      }

      .cls-6 {
        opacity: .2;
      }

      .cls-7 {
        opacity: .38;
      }

      .cls-8 {
        opacity: .5;
      }

      .cls-9 {
        opacity: .23;
      }

      .cls-11 {
        opacity: .65;
      }

      .cls-12 {
        opacity: .4;
      }

      .cls-13 {
        fill: #455a64;
      }

      .cls-14 {
        opacity: .1;
      }
    </style>
  </defs>
  <g id="freepik--Box--inject-120">
    <g id="freepik--box--inject-120">
      <polygon class="cls-3" points="205.78 189.44 132.02 232.03 48.96 183.96 122.72 141.38 205.78 189.44"/>
      <polygon class="cls-8" points="205.78 189.44 132.02 232.03 48.96 183.96 122.72 141.38 205.78 189.44"/>
      <polygon class="cls-3" points="122.72 83.65 122.72 141.38 48.96 183.96 48.96 126.24 122.72 83.65"/>
      <polygon class="cls-9" points="122.72 83.65 122.72 141.38 48.96 183.96 48.96 126.24 122.72 83.65"/>
      <polygon class="cls-3" points="132.02 174.3 132.02 232.03 48.96 183.96 48.96 126.24 132.02 174.3"/>
      <polygon class="cls-7" points="132.02 174.3 132.02 232.03 48.96 183.96 48.96 126.24 132.02 174.3"/>
      <polygon class="cls-3" points="205.78 131.71 205.78 189.44 122.72 141.38 122.72 83.65 205.78 131.71"/>
      <polygon class="cls-12" points="205.78 131.71 205.78 189.44 122.72 141.38 122.72 83.65 205.78 131.71"/>
      <polygon class="cls-3" points="205.78 189.44 205.78 131.71 132.02 174.3 132.02 232.03 205.78 189.44"/>
      <polygon class="cls-9" points="205.78 189.44 205.78 131.71 132.02 174.3 132.02 232.03 205.78 189.44"/>
      <polygon class="cls-3" points="122.72 83.65 122.82 51.69 205.68 99.81 205.78 131.71 122.72 83.65"/>
      <polygon class="cls-6" points="122.72 83.65 122.82 51.69 205.68 99.81 205.78 131.71 122.72 83.65"/>
      <polygon class="cls-3" points="132.02 174.3 138.94 146.34 212.03 104.14 205.78 131.71 132.02 174.3"/>
      <polygon class="cls-2" points="132.02 174.3 138.94 146.34 212.03 104.14 205.78 131.71 132.02 174.3"/>
      <polygon class="cls-3" points="48.96 126.24 40.16 97.24 113.92 54.66 122.72 83.65 48.96 126.24"/>
      <polygon class="cls-14" points="48.96 126.24 40.16 97.24 113.92 54.66 122.72 83.65 48.96 126.24"/>
      <polygon class="cls-3" points="48.96 126.24 31.6 102.27 114.67 150.33 132.02 174.3 48.96 126.24"/>
      <polygon class="cls-1" points="48.96 126.24 31.6 102.27 114.67 150.33 132.02 174.3 48.96 126.24"/>
      <g class="cls-15">
        <path class="cls-10" d="m153.74,214.86c-.25,0-.45-.2-.46-.45v-10.16c0-.25.21-.45.46-.46.25,0,.45.21.45.46v10.16c0,.25-.2.45-.45.45Z"/>
        <path class="cls-10" d="m152.41,207.77c-.06,0-.12,0-.18,0-.23-.1-.33-.37-.24-.6l1.62-3.73,1.8,2.08c.14.21.09.5-.12.64-.18.12-.42.11-.57-.04l-.85-1-1,2.4c-.09.17-.27.27-.46.25Z"/>
        <path class="cls-10" d="m157.93,212.47c-.25,0-.45-.21-.45-.46v-10.15c0-.25.2-.45.45-.45.25,0,.45.2.45.45h0v10.14c0,.25-.2.46-.45.47h0Z"/>
        <path class="cls-10" d="m156.6,205.38c-.06,0-.12,0-.18,0-.23-.1-.33-.36-.23-.59,0,0,0,0,0,0l1.61-3.78,1.8,2.07c.17.18.17.46,0,.64-.17.18-.46.18-.64,0,0,0,0,0,0,0l-.85-1-1,2.4c-.09.2-.3.31-.51.27Z"/>
      </g>
      <g class="cls-15">
        <path class="cls-10" d="m141.65,221.75c-.17,0-.34-.04-.49-.12-.37-.24-.58-.65-.55-1.09v-1.25c0-.25.21-.45.46-.45.25,0,.45.2.45.45h0v1.25c0,.18,0,.28.09.3s.14,0,.29-.08c.57-.53.88-1.28.85-2.05v-5.2c0-.25.2-.45.45-.45.25,0,.45.2.45.45h0v5.2c.05,1.09-.43,2.15-1.29,2.83-.21.13-.46.2-.71.21Z"/>
        <path class="cls-10" d="m136.88,217.56v-.78c.24-4.06,2.39-7.77,5.79-10,1.64-.94,3.2-1.08,4.4-.38,1.3.89,2.02,2.43,1.86,4v.26l-12.05,6.9Zm8.51-10.74c-.8.04-1.58.28-2.26.7-2.91,1.91-4.84,5-5.3,8.45l10.17-5.88c.09-1.18-.45-2.32-1.41-3-.37-.19-.78-.29-1.2-.27Z"/>
      </g>
      <polygon class="cls-4" points="31.6 102.27 114.67 150.33 132.02 174.3 113.75 151.18 31.6 102.27"/>
      <polygon class="cls-4" points="205.78 131.71 132.02 174.3 132.02 232.03 133.4 175.46 205.78 131.71"/>
    </g>
  </g>
  <g id="freepik--Moth--inject-120">
    <g id="freepik--moth--inject-120">
      <path class="cls-5" d="m97.54,108.62c7.61-1.1,14.56-6,19-12.16,2.07-2.88,3.6-6.11,4.5-9.54.96-3.21,1.12-6.6.46-9.88-1.37-5.49-6.45-8.74-11.82-9.42-2.72-.36-5.5-.09-8.1.79-2.7.93-5.04,2.68-6.7,5-1.04,1.24-1.69,2.75-1.88,4.36-.03,1.3.94,2.41,2.24,2.55,1.61.14,3.22-.27,4.57-1.16,1.65-.92,3.1-2.16,4.27-3.64,2.52-3.1,4.4-6.67,5.54-10.5.8-3.29.8-6.71,0-10-.61-3.44-2.18-6.63-4.53-9.21-2.69-2.45-6.11-3.96-9.74-4.29-3.61-.5-7.28-.15-10.74,1-1.52.46-2.92,1.23-4.13,2.26-.86.8-1.84,2.12-1.49,3.42s2.25,1.88,3.54,1.71c1.91-.36,3.66-1.31,5-2.71,1.5-1.47,2.77-3.16,3.77-5,.75-1.32,1.14-2.82,1.13-4.34-.13-6.34-7.14-10.44-12.63-11.6-1.48-.31-3-.41-4.51-.3-.51,0-.2.84.21.81,2.95-.13,5.89.53,8.5,1.92,2.57,1.18,4.74,3.11,6.21,5.53,1.34,2.43,1.24,5.4-.24,7.74-.98,1.71-2.2,3.26-3.62,4.62-1.19,1.08-3,2.33-4.67,2.21-.56,0-1.08-.32-1.32-.83-.1-.67.12-1.34.59-1.82.88-.95,1.98-1.68,3.19-2.14,3-1.25,6.25-1.78,9.49-1.56,3.34.06,6.59,1.1,9.34,3,2.4,1.99,4.1,4.69,4.86,7.71.96,3.07,1.26,6.31.88,9.5-.59,3.21-1.83,6.27-3.63,9-1.85,3.06-4.17,6-7.65,7.2-.86.31-2.66.76-3-.49s.64-2.79,1.27-3.76c1.39-2.19,3.42-3.91,5.82-4.91,2.31-.93,4.81-1.3,7.29-1.1,4.71.35,9.49,2.81,11.13,7.49.82,2.8.91,5.76.26,8.6-.59,3.11-1.71,6.1-3.31,8.84-3.45,5.81-8.66,10.36-14.89,12.99-1.48.64-3,1.18-4.55,1.68-.16.06-.09.46.09.43Z"/>
      <path class="cls-3" d="m65.75,21.8c-4-.29-9.51,2.86-7.55,5.16s7.16-1.42,7.16-1.42c0,0-.49,4.65,1.21,5.18s4-3.91,2.3-6.75c1.67.66,3.55.42,5-.64,2.42-1.78-.14-3.46-3.55-3.16,0,0,2.44-8-2.49-6.47-2.47.75-3.34,3.64-2.08,8.1Z"/>
      <path class="cls-11" d="m65.75,21.8c-4-.29-9.51,2.86-7.55,5.16s7.16-1.42,7.16-1.42c0,0-.49,4.65,1.21,5.18s4-3.91,2.3-6.75c1.67.66,3.55.42,5-.64,2.42-1.78-.14-3.46-3.55-3.16,0,0,2.44-8-2.49-6.47-2.47.75-3.34,3.64-2.08,8.1Z"/>
      <path class="cls-13" d="m69.47,23.5c-.22-.22-.46-.42-.7-.61-.35-.27-.72-.53-1.07-.79-.34-.25-.7-.47-1.07-.67-.21-.12-.43-.23-.66-.32-.31-.15-.66-.2-1-.16-.28,0-.49.24-.49.51,0,.1.03.19.09.27.27.3.62.52,1,.66l.54.29c.37.22.7.47,1,.72s.7.49,1,.74c.52.42,1.09.76,1.71,1,.06.03.12.03.18,0,.51-.4-.24-1.35-.53-1.64Z"/>
    </g>
  </g>
</svg>